<svg
  width="257"
  height="36"
  viewBox="0 0 257 36"
  fill="none"
  xmlns="http://www.w3.org/2000/svg"
>
<path
    d="M60.4627 14.5157L59.1936 15.7127C58.2746 14.8204 57.2681 14.1457 56.1959 13.6669C55.1018 13.2099 54.0515 12.9705 53.0012 12.9705C51.7102 12.9705 50.4849 13.2752 49.3252 13.9063C48.1655 14.5375 47.2683 15.3863 46.6119 16.4527C45.9773 17.5191 45.6491 18.6726 45.6491 19.8696C45.6491 21.0884 45.9773 22.2637 46.6338 23.3736C47.2902 24.4836 48.2092 25.3541 49.3689 25.9853C50.5286 26.6164 51.8196 26.9429 53.1982 26.9429C54.883 26.9429 56.3053 26.4641 57.4869 25.5282C58.6466 24.5924 59.3468 23.3519 59.5656 21.8501H54.336V20.2831H61.4036C61.3817 22.8078 60.6378 24.81 59.1498 26.29C57.6619 27.7699 55.6707 28.5099 53.1763 28.5099C50.1348 28.5099 47.7497 27.487 45.9773 25.4194C44.6207 23.8307 43.9424 22.0025 43.9424 19.9349C43.9424 18.3897 44.3362 16.9533 45.124 15.6257C45.9117 14.2981 46.9839 13.2534 48.3405 12.5134C49.6971 11.7735 51.2507 11.3817 52.9575 11.3817C54.3579 11.3817 55.6488 11.6211 56.8742 12.1217C58.0995 12.6223 59.303 13.4275 60.4627 14.5157Z"
    fill="#F2F2F2"
  />
<path
    d="M64.5762 11.7953H73.9851V13.384H66.2173V18.4986H73.9195V20.0873H66.2173V26.5077H73.9195V28.0964H64.5762V11.7953ZM70.1121 7.07251H72.5191L69.2369 10.4894H67.7052L70.1121 7.07251Z"
    fill="#F2F2F2"
  />
<path
    d="M76.8076 28.0964V11.7734H77.1577L88.0765 24.2877V11.7952H89.6957V28.1181H89.3237L78.4925 15.7562V28.1181H76.8076V28.0964Z"
    fill="#F2F2F2"
  />
<path
    d="M93.7002 11.7953H103.109V13.384H95.3413V18.4986H103.043V20.0873H95.3413V26.5077H103.043V28.0964H93.7002V11.7953ZM99.258 7.07251H101.665L98.3828 10.4894H96.8511L99.258 7.07251Z"
    fill="#F2F2F2"
  />
<path
    d="M106.041 11.7952H109.301C111.117 11.7952 112.365 11.8605 112.999 12.0128C113.984 12.2305 114.772 12.7093 115.384 13.4493C115.997 14.1892 116.303 15.0815 116.303 16.148C116.303 17.0403 116.085 17.8238 115.669 18.4985C115.253 19.1732 114.64 19.6737 113.875 20.0219C113.087 20.3702 112.015 20.5443 110.636 20.5443L116.544 28.1181H114.509L108.601 20.5443H107.682V28.1181H106.041V11.7952ZM107.682 13.384V18.9338L110.505 18.9555C111.599 18.9555 112.408 18.8467 112.934 18.6508C113.459 18.4332 113.875 18.1067 114.159 17.6497C114.443 17.1926 114.597 16.6921 114.597 16.1262C114.597 15.5821 114.443 15.0815 114.159 14.6245C113.853 14.1675 113.481 13.8628 112.977 13.6669C112.496 13.471 111.686 13.384 110.57 13.384H107.682Z"
    fill="#F2F2F2"
  />
<path
    d="M126.522 11.7952L134.181 28.1181H132.387L129.805 22.7424H122.737L120.177 28.1181H118.339L126.085 11.7952H126.522ZM126.304 15.2557L123.503 21.1537H129.104L126.304 15.2557Z"
    fill="#F2F2F2"
  />
<path
    d="M133.218 13.384V11.7952H142.211V13.384H138.557V28.0964H136.894V13.384H133.218Z"
    fill="#F2F2F2"
  />
<path d="M144.355 11.7952H145.997V28.1181H144.355V11.7952Z" fill="#F2F2F2" />
<path
    d="M157.55 11.3817C160.045 11.3817 162.123 12.2087 163.786 13.8628C165.471 15.5169 166.303 17.5409 166.303 19.9567C166.303 22.3507 165.471 24.3748 163.786 26.0288C162.123 27.6829 160.089 28.5317 157.682 28.5317C155.253 28.5317 153.196 27.7046 151.511 26.0506C149.848 24.3748 149.017 22.3725 149.017 20.022C149.017 18.455 149.389 16.9968 150.154 15.6692C150.92 14.3198 151.949 13.2752 153.283 12.5134C154.596 11.7517 156.019 11.3817 157.55 11.3817ZM157.638 12.9705C156.434 12.9705 155.275 13.2752 154.181 13.9063C153.087 14.5375 152.255 15.3863 151.642 16.4527C151.03 17.5191 150.723 18.7161 150.723 20.022C150.723 21.959 151.402 23.5913 152.758 24.9406C154.115 26.2682 155.734 26.9429 157.638 26.9429C158.907 26.9429 160.089 26.6382 161.183 26.0288C162.277 25.4194 163.108 24.5706 163.721 23.5042C164.333 22.4378 164.64 21.2625 164.64 19.9567C164.64 18.6509 164.333 17.4974 163.721 16.4527C163.108 15.408 162.255 14.5592 161.161 13.9281C160.045 13.2752 158.863 12.9705 157.638 12.9705Z"
    fill="#F2F2F2"
  />
<path
    d="M169.606 28.0964V11.7734H169.957L180.875 24.2877V11.7952H182.494V28.1181H182.123L171.291 15.7562V28.1181H169.606V28.0964Z"
    fill="#F2F2F2"
  />
<path
    d="M185.492 11.7952H195.426L189.584 25.1365H195.054V28.1181H185.032L190.853 14.8639H185.514V11.7952H185.492Z"
    fill="#F2F2F2"
  />
<path
    d="M197.812 11.7952H206.761V14.8421H200.897V17.802H206.761V20.7837H200.897V25.0712H206.761V28.1181H197.812V11.7952ZM202.822 6.18011H206.433L202.341 10.5329H200.153L202.822 6.18011Z"
    fill="#F2F2F2"
  />
<path
    d="M209.671 28.0964V11.7734H212.253C213.741 11.7734 214.835 11.8605 215.535 12.0564C216.52 12.3175 217.307 12.7963 217.876 13.4928C218.467 14.1892 218.752 15.0163 218.752 15.9739C218.752 16.605 218.62 17.1491 218.358 17.6715C218.095 18.172 217.658 18.6508 217.067 19.0861C218.073 19.5431 218.795 20.1308 219.255 20.8272C219.714 21.5237 219.955 22.3507 219.955 23.3083C219.955 24.2224 219.714 25.0712 219.233 25.8112C218.752 26.5729 218.139 27.1388 217.395 27.5087C216.651 27.8787 215.601 28.0746 214.288 28.0746H209.671V28.0964ZM212.8 14.7551V18.1938H213.478C214.244 18.1938 214.813 18.0414 215.185 17.715C215.557 17.3885 215.732 16.975 215.732 16.4091C215.732 15.9086 215.557 15.4951 215.207 15.1904C214.857 14.8857 214.332 14.7333 213.61 14.7333H212.8V14.7551ZM212.8 20.9578V25.1365H213.588C214.879 25.1365 215.754 24.9841 216.213 24.6577C216.673 24.3312 216.892 23.8524 216.892 23.243C216.892 22.5466 216.629 21.9807 216.104 21.589C215.579 21.1754 214.704 20.9796 213.456 20.9796H212.8V20.9578Z"
    fill="#F2F2F2"
  />
<path
    d="M223.128 11.7952H226.432C228.248 11.7952 229.539 11.9475 230.305 12.274C231.071 12.6005 231.683 13.1228 232.165 13.8845C232.624 14.6245 232.865 15.5168 232.865 16.5397C232.865 17.6062 232.602 18.4985 232.099 19.2385C231.574 19.9567 230.808 20.5008 229.758 20.8707L233.653 28.1181H230.239L226.541 21.1972H226.257V28.1181H223.128V11.7952ZM226.257 18.172H227.242C228.226 18.172 228.926 18.0414 229.298 17.7803C229.67 17.5191 229.867 17.0838 229.867 16.4962C229.867 16.148 229.78 15.8215 229.583 15.5604C229.408 15.2992 229.145 15.1033 228.839 14.9945C228.533 14.8857 227.964 14.8204 227.132 14.8204H226.279V18.172H226.257Z"
    fill="#F2F2F2"
  />
<path
    d="M236.191 11.7952H245.141V14.8421H239.277V17.802H245.141V20.7837H239.277V25.0712H245.141V28.1181H236.191V11.7952ZM241.202 6.18011H244.813L240.721 10.5329H238.533L241.202 6.18011Z"
    fill="#F2F2F2"
  />
<path
    d="M248.051 11.7952H257V14.8421H251.136V17.802H257V20.7837H251.136V25.0712H257V28.1181H248.051V11.7952Z"
    fill="#F2F2F2"
  />
<path
    d="M31.4481 5.15729C30.551 5.48375 -1.0455 16.1916 0.0266785 31.274C1.09886 46.3563 34.2271 13.2752 35.8682 10.3806C37.4874 7.48603 38.9096 2.34975 31.4481 5.15729Z"
    fill="#333333"
  />
<path
    d="M19.8948 35.6702C20.6607 35.6049 36.3057 38.7172 38.5595 27.0517C40.8133 15.408 19.4134 28.9452 17.5754 30.8169C15.7374 32.6668 13.6149 36.2796 19.8948 35.6702Z"
    fill="#F2F2F2"
  />
<path
    d="M20.5292 1.23976C19.7415 1.21799 4.68718 -4.02711 0.836076 7.22483C-3.01502 18.455 20.0478 7.9648 22.1265 6.37604C24.2271 4.76551 26.831 1.50092 20.5292 1.23976Z"
    fill="#F2F2F2"
  />
</svg>
